<?xml version="1.0" standalone="no"?>
<!DOCTYPE svg PUBLIC "-//W3C//DTD SVG 20010904//EN"
 "http://www.w3.org/TR/2001/REC-SVG-20010904/DTD/svg10.dtd">
<svg version="1.0" xmlns="http://www.w3.org/2000/svg"
 width="260.000000pt" height="260.000000pt" viewBox="0 0 260.000000 260.000000"
 preserveAspectRatio="xMidYMid meet">
<metadata>
Created by potrace 1.11, written by Peter Selinger 2001-2013
</metadata>
<g transform="translate(0.000000,260.000000) scale(0.100000,-0.100000)"
fill="#000000" stroke="none">
<path d="M150 1300 l0 -1150 1150 0 1150 0 0 1150 0 1150 -1150 0 -1150 0 0
-1150z m2198 -2 l2 -1048 -1050 0 -1050 0 0 1043 c0 574 3 1047 7 1050 3 4
475 6 1047 5 l1041 -3 3 -1047z"/>
<path d="M794 2021 c-2 -2 -4 -13 -4 -23 0 -13 8 -18 28 -18 55 0 97 -19 117
-52 19 -32 20 -53 20 -603 0 -314 -4 -587 -8 -607 -9 -44 -41 -65 -112 -75
-33 -4 -45 -10 -45 -22 0 -16 25 -17 280 -17 257 -1 280 1 280 16 0 14 -13 18
-60 23 -70 8 -114 28 -132 60 -9 15 -14 87 -16 243 l-4 221 146 7 c222 11 323
44 420 140 143 140 166 389 51 546 -43 58 -94 95 -182 128 -67 26 -71 26 -421
32 -195 3 -356 3 -358 1z m630 -58 c88 -25 147 -86 177 -183 18 -62 21 -88 17
-198 -5 -138 -18 -183 -71 -260 -20 -28 -49 -51 -86 -70 -51 -25 -68 -27 -190
-31 l-133 -3 4 338 c3 221 8 348 16 366 6 15 24 34 39 42 38 21 152 20 227 -1z"/>
</g>
</svg>
