<svg xmlns="http://www.w3.org/2000/svg" width="1642.44" height="556.969" viewBox="0 0 1642.44 556.969">
  <defs>
    <style>
      .cls-1 {
        fill-rule: evenodd;
      }
    </style>
  </defs>
  <path id="frame" class="cls-1" d="M1638.04,7.853a3.967,3.967,0,0,1-4.22-3.621,4.062,4.062,0,0,1,8.1-.341A3.892,3.892,0,0,1,1638.04,7.853Zm0.4,15.171a3.953,3.953,0,0,1-4.11-3.727,4.064,4.064,0,0,1,8.11-.129A3.917,3.917,0,0,1,1638.44,23.024ZM1638.43,38.2a3.808,3.808,0,1,1,0-7.588A3.8,3.8,0,1,1,1638.43,38.2Zm-0.13,15.176a3.8,3.8,0,1,1,4.14-3.73A3.926,3.926,0,0,1,1638.3,53.378Zm-0.63,15.166a3.911,3.911,0,0,1-3.85-3.959,3.967,3.967,0,0,1,4.22-3.621,3.892,3.892,0,0,1,3.88,3.962A3.948,3.948,0,0,1,1637.67,68.544Zm-1.05,15.145a3.886,3.886,0,0,1-3.74-4.05,3.986,3.986,0,0,1,4.32-3.52,3.881,3.881,0,0,1,3.77,4.055A3.972,3.972,0,0,1,1636.62,83.689Zm-1.45,15.118a3.882,3.882,0,0,1-3.64-4.138,4,4,0,0,1,4.41-3.417,3.859,3.859,0,0,1,3.66,4.141A3.984,3.984,0,0,1,1635.17,98.807Zm-1.87,15.078a3.859,3.859,0,0,1-3.52-4.222,4.018,4.018,0,0,1,4.5-3.311,3.85,3.85,0,0,1,3.55,4.224A4.007,4.007,0,0,1,1633.3,113.885Zm-2.28,15.027a3.836,3.836,0,0,1-3.4-4.305,4.027,4.027,0,0,1,4.59-3.2,3.829,3.829,0,0,1,3.43,4.312A4.021,4.021,0,0,1,1631.02,128.912Zm-2.72,14.965a3.825,3.825,0,0,1-3.27-4.391,4.046,4.046,0,0,1,4.68-3.084,3.812,3.812,0,0,1,3.3,4.4A4.031,4.031,0,0,1,1628.3,143.877Zm-3.17,14.885a3.813,3.813,0,0,1-3.14-4.476,4.074,4.074,0,0,1,4.78-2.955,3.791,3.791,0,0,1,3.16,4.483A4.048,4.048,0,0,1,1625.13,158.762Zm-3.66,14.79a3.789,3.789,0,0,1-2.98-4.563,4.089,4.089,0,0,1,4.87-2.818,3.769,3.769,0,0,1,3.01,4.573A4.063,4.063,0,0,1,1621.47,173.552Zm-4.17,14.671a3.775,3.775,0,0,1-2.82-4.653,4.121,4.121,0,0,1,4.97-2.666,3.756,3.756,0,0,1,2.85,4.663A4.087,4.087,0,0,1,1617.3,188.223Zm-4.72,14.526a3.76,3.76,0,0,1-2.64-4.744,4.146,4.146,0,0,1,5.07-2.5,3.733,3.733,0,0,1,2.67,4.755A4.105,4.105,0,0,1,1612.58,202.749Zm-5.31,14.347a3.731,3.731,0,0,1-2.43-4.836,4.156,4.156,0,0,1,5.16-2.313,3.716,3.716,0,0,1,2.48,4.849A4.137,4.137,0,0,1,1607.27,217.1Zm-5.94,14.129a3.715,3.715,0,0,1-2.21-4.927,4.18,4.18,0,0,1,5.26-2.107,3.682,3.682,0,0,1,2.25,4.943A4.141,4.141,0,0,1,1601.33,231.225Zm-6.63,13.862a3.7,3.7,0,0,1-1.96-5.016,4.209,4.209,0,0,1,5.36-1.878,3.671,3.671,0,0,1,2.01,5.037A4.177,4.177,0,0,1,1594.7,245.087Zm-7.36,13.534a3.675,3.675,0,0,1-1.68-5.1,4.239,4.239,0,0,1,5.46-1.62,3.651,3.651,0,0,1,1.72,5.126A4.185,4.185,0,0,1,1587.34,258.621Zm-8.15,13.136a3.67,3.67,0,0,1-1.37-5.182,4.265,4.265,0,0,1,5.55-1.331,3.629,3.629,0,0,1,1.41,5.211A4.2,4.2,0,0,1,1579.19,271.757Zm-8.99,12.652a3.659,3.659,0,0,1-1.02-5.25,4.282,4.282,0,0,1,5.62-1.009,3.6,3.6,0,0,1,1.07,5.283A4.217,4.217,0,0,1,1570.2,284.409Zm-9.87,12.066a3.642,3.642,0,0,1-.63-5.3,4.3,4.3,0,0,1,5.68-.654,3.6,3.6,0,0,1,.68,5.341A4.225,4.225,0,0,1,1560.33,296.475Zm-10.78,11.368a3.629,3.629,0,0,1-.21-5.327,4.3,4.3,0,0,1,5.71-.261,3.582,3.582,0,0,1,.26,5.375A4.233,4.233,0,0,1,1549.55,307.843Zm-11.71,10.542a3.64,3.64,0,0,1,.26-5.324,4.309,4.309,0,0,1,5.71.163,3.581,3.581,0,0,1-.2,5.379A4.237,4.237,0,0,1,1537.84,318.385Zm-12.61,9.588a3.648,3.648,0,0,1,.74-5.281,4.313,4.313,0,0,1,5.68.613,3.589,3.589,0,0,1-.69,5.346A4.221,4.221,0,0,1,1525.23,327.973Zm-13.47,8.521a3.683,3.683,0,0,1,1.24-5.2,4.3,4.3,0,0,1,5.6,1.08,3.613,3.613,0,0,1-1.19,5.269A4.208,4.208,0,0,1,1511.76,336.494Zm-14.23,7.347a3.694,3.694,0,0,1,1.74-5.071,4.263,4.263,0,0,1,5.47,1.551,3.639,3.639,0,0,1-1.71,5.145A4.162,4.162,0,0,1,1497.53,343.841Zm-14.9,6.11a3.742,3.742,0,0,1,2.23-4.9,4.216,4.216,0,0,1,5.29,2.006,3.664,3.664,0,0,1-2.2,4.98A4.123,4.123,0,0,1,1482.63,349.951Zm-15.42,4.841a3.776,3.776,0,0,1,2.68-4.7,4.182,4.182,0,0,1,5.09,2.439,3.717,3.717,0,0,1-2.67,4.777A4.075,4.075,0,0,1,1467.21,354.792Zm-15.82,3.587a3.837,3.837,0,0,1,3.11-4.475,4.123,4.123,0,0,1,4.84,2.835,3.755,3.755,0,0,1-3.09,4.546A4.034,4.034,0,0,1,1451.39,358.379Zm-11.62,19.938a3.887,3.887,0,0,1-3.84-3.822,3.943,3.943,0,0,1,4.16-3.522,3.819,3.819,0,0,1,3.94,3.827A3.871,3.871,0,0,1,1439.77,378.317Zm0.92-13.35a3.887,3.887,0,0,1-3.84-3.822,3.949,3.949,0,0,1,4.16-3.522,3.813,3.813,0,0,1,3.94,3.827A3.865,3.865,0,0,1,1440.69,364.967Zm-2.74,27.945a3.832,3.832,0,0,1-3.42-4.162,4.015,4.015,0,0,1,4.52-3.114,3.754,3.754,0,0,1,3.51,4.176A3.931,3.931,0,0,1,1437.95,392.912Zm-3.42,14.345a3.77,3.77,0,0,1-2.93-4.469,4.077,4.077,0,0,1,4.84-2.661,3.693,3.693,0,0,1,3.03,4.493A4,4,0,0,1,1434.53,407.257Zm-5.1,13.9a3.714,3.714,0,0,1-2.36-4.746,4.151,4.151,0,0,1,5.13-2.136,3.63,3.63,0,0,1,2.47,4.784A4.054,4.054,0,0,1,1429.43,421.159Zm-6.85,13.226a3.664,3.664,0,0,1-1.72-4.981,4.224,4.224,0,0,1,5.37-1.531,3.572,3.572,0,0,1,1.82,5.035A4.091,4.091,0,0,1,1422.58,434.385Zm-8.67,12.27a3.618,3.618,0,0,1-.97-5.146,4.251,4.251,0,0,1,5.53-.85,3.525,3.525,0,0,1,1.08,5.218A4.129,4.129,0,0,1,1413.91,446.655Zm-10.4,11.031a3.6,3.6,0,0,1-.19-5.22,4.27,4.27,0,0,1,5.6-.124,3.508,3.508,0,0,1,.3,5.311A4.151,4.151,0,0,1,1403.51,457.686Zm-11.95,9.567a3.618,3.618,0,0,1,.58-5.2,4.274,4.274,0,0,1,5.57.612,3.509,3.509,0,0,1-.5,5.293A4.128,4.128,0,0,1,1391.56,467.253Zm-13.24,7.969a3.639,3.639,0,0,1,1.32-5.083,4.238,4.238,0,0,1,5.44,1.3,3.541,3.541,0,0,1-1.26,5.18A4.1,4.1,0,0,1,1378.32,475.222Zm-14.2,6.368a3.678,3.678,0,0,1,1.97-4.9,4.177,4.177,0,0,1,5.23,1.918,3.579,3.579,0,0,1-1.93,4.99A4.059,4.059,0,0,1,1364.12,481.59Zm-14.87,4.858a3.712,3.712,0,0,1,2.52-4.684,4.117,4.117,0,0,1,4.98,2.431,3.635,3.635,0,0,1-2.5,4.767A4,4,0,0,1,1349.25,486.448Zm-15.32,3.482a3.77,3.77,0,0,1,2.99-4.448,4.052,4.052,0,0,1,4.71,2.863,3.686,3.686,0,0,1-2.97,4.521A3.967,3.967,0,0,1,1333.93,489.93Zm-15.57,2.275a3.814,3.814,0,0,1,3.36-4.21,3.983,3.983,0,0,1,4.45,3.214,3.746,3.746,0,0,1-3.35,4.275A3.916,3.916,0,0,1,1318.36,492.205Zm-15.71,1.225a3.851,3.851,0,0,1,3.66-3.99,3.95,3.95,0,0,1,4.21,3.5,3.793,3.793,0,0,1-3.66,4.045A3.875,3.875,0,0,1,1302.65,493.43Zm-15.76.319a3.945,3.945,0,0,1,7.88-.055A3.943,3.943,0,0,1,1286.89,493.749Zm-15.76-.469a3.907,3.907,0,0,1,4.12-3.59A3.784,3.784,0,1,1,1271.13,493.28Zm-15.71-1.148a3.939,3.939,0,0,1,4.28-3.424,3.834,3.834,0,0,1,3.57,4.075,3.9,3.9,0,0,1-4.29,3.455A3.776,3.776,0,0,1,1255.42,492.132Zm-14.79,1.291a3.953,3.953,0,0,1,4.29-3.422,3.832,3.832,0,0,1,3.57,4.074,3.9,3.9,0,0,1-4.29,3.455A3.791,3.791,0,0,1,1240.63,493.423Zm1.9,17.635a4.133,4.133,0,0,1-2.85-4.393,4.4,4.4,0,0,1,4.42-3.085,3.664,3.664,0,0,1,3.54,4.521A3.873,3.873,0,0,1,1242.53,511.058Zm-10.41,11.525a3.84,3.84,0,0,1,.62-5.172,4.635,4.635,0,0,1,5.56.165c1.74,1.315,1.74,3.96-.26,5.561A4.092,4.092,0,0,1,1232.12,522.583Zm-14.99,6.113a3.858,3.858,0,0,1,2.59-4.717,4.3,4.3,0,0,1,5.16,2.2,3.646,3.646,0,0,1-2.5,4.943A4.066,4.066,0,0,1,1217.13,528.7Zm-16.11,2.858a3.908,3.908,0,0,1,3.47-4.242,4.13,4.13,0,0,1,4.65,3.109,3.8,3.8,0,0,1-3.46,4.368A3.983,3.983,0,0,1,1201.02,531.554Zm-16.39.993a3.966,3.966,0,0,1,3.94-3.9,4.026,4.026,0,0,1,4.27,3.58,3.893,3.893,0,0,1-3.94,3.973A3.946,3.946,0,0,1,1184.63,532.547Zm-16.42-.205a4.123,4.123,0,0,1,8.21.225,3.951,3.951,0,0,1-4.23,3.692A3.91,3.91,0,0,1,1168.21,532.342Zm-16.38-1.037a4.015,4.015,0,0,1,4.41-3.444,3.919,3.919,0,0,1,3.77,4.052,3.99,3.99,0,0,1-4.42,3.484A3.872,3.872,0,0,1,1151.83,531.3Zm-16.33-1.658a4.045,4.045,0,0,1,4.55-3.291,3.9,3.9,0,0,1,3.61,4.189,4.024,4.024,0,0,1-4.56,3.319A3.86,3.86,0,0,1,1135.5,529.647Zm-16.26-2.142a4.053,4.053,0,0,1,4.65-3.165,3.869,3.869,0,0,1,3.47,4.29,4.04,4.04,0,0,1-4.66,3.187A3.84,3.84,0,0,1,1119.24,527.505Zm-16.2-2.534a4.081,4.081,0,0,1,4.74-3.059,3.849,3.849,0,0,1,3.35,4.371,4.055,4.055,0,0,1-4.74,3.077A3.829,3.829,0,0,1,1103.04,524.971Zm-16.14-2.854a4.092,4.092,0,0,1,4.81-2.971,3.834,3.834,0,0,1,3.25,4.436,4.069,4.069,0,0,1-4.81,2.984A3.824,3.824,0,0,1,1086.9,522.117Zm-16.08-3.129a4.1,4.1,0,0,1,4.86-2.892,3.833,3.833,0,0,1,3.18,4.488,4.094,4.094,0,0,1-4.87,2.906A3.817,3.817,0,0,1,1070.82,518.988Zm-16.02-3.361a4.108,4.108,0,0,1,4.91-2.825,3.817,3.817,0,0,1,3.1,4.533,4.1,4.1,0,0,1-4.91,2.835A3.8,3.8,0,0,1,1054.8,515.627Zm-15.97-3.566a4.112,4.112,0,0,1,4.94-2.765,3.808,3.808,0,0,1,3.04,4.572,4.106,4.106,0,0,1-4.95,2.774A3.8,3.8,0,0,1,1038.83,512.061Zm-15.93-3.746a4.122,4.122,0,0,1,4.98-2.711,3.8,3.8,0,0,1,2.98,4.605,4.11,4.11,0,0,1-4.98,2.719A3.79,3.79,0,0,1,1022.9,508.315Zm-15.94-3.671a4.089,4.089,0,0,1,4.94-2.805,3.794,3.794,0,0,1,3.05,4.585,4.13,4.13,0,0,1-4.94,2.768A3.815,3.815,0,0,1,1006.96,504.644Zm-16.075-3.14a4.061,4.061,0,0,1,4.823-2.979,3.812,3.812,0,0,1,3.23,4.476,4.1,4.1,0,0,1-4.816,2.936A3.841,3.841,0,0,1,990.885,501.5Zm-16.2-2.513a4.029,4.029,0,0,1,4.681-3.173,3.834,3.834,0,0,1,3.435,4.346,4.083,4.083,0,0,1-4.676,3.125A3.876,3.876,0,0,1,974.685,498.991Zm-16.311-1.782a4,4,0,0,1,4.5-3.394A3.867,3.867,0,0,1,966.542,498a4.045,4.045,0,0,1-4.5,3.335A3.905,3.905,0,0,1,958.374,497.209Zm-16.392-.914a3.956,3.956,0,0,1,4.283-3.641,3.9,3.9,0,0,1,3.92,3.982,4.01,4.01,0,0,1-4.281,3.57A3.949,3.949,0,0,1,941.982,496.3Zm-16.421.116a4.117,4.117,0,0,1,8.209-.2A4.123,4.123,0,0,1,925.561,496.411Zm-16.354,1.347a3.837,3.837,0,0,1,3.628-4.221,3.985,3.985,0,0,1,4.534,3.38,3.924,3.924,0,0,1-3.642,4.134A4.073,4.073,0,0,1,909.207,497.758Zm-16.135,2.826a3.775,3.775,0,0,1,3.146-4.557,4.047,4.047,0,0,1,4.882,2.944,3.861,3.861,0,0,1-3.175,4.445A4.142,4.142,0,0,1,893.072,500.584Zm-15.663,4.568a3.691,3.691,0,0,1,2.519-4.89,4.1,4.1,0,0,1,5.234,2.372,3.808,3.808,0,0,1-2.568,4.767A4.235,4.235,0,0,1,877.409,505.152Zm-14.821,6.565a3.63,3.63,0,0,1,1.72-5.193,4.163,4.163,0,0,1,5.555,1.647,3.74,3.74,0,0,1-1.8,5.052A4.309,4.309,0,0,1,862.588,511.717Zm-13.47,8.726a3.576,3.576,0,0,1,.754-5.394,4.2,4.2,0,0,1,5.777.756,3.705,3.705,0,0,1-.868,5.259A4.371,4.371,0,0,1,849.118,520.443ZM837.567,531.3a3.565,3.565,0,0,1-.335-5.435,4.207,4.207,0,0,1,5.834-.246,3.7,3.7,0,0,1,.184,5.312A4.382,4.382,0,0,1,837.567,531.3ZM828.46,544.01A3.6,3.6,0,0,1,827,538.737a4.172,4.172,0,0,1,5.677-1.292,3.727,3.727,0,0,1,1.278,5.175A4.336,4.336,0,0,1,828.46,544.01Zm-9.7,12.784a3.6,3.6,0,0,1-1.459-5.274,4.173,4.173,0,0,1,5.677-1.292,3.728,3.728,0,0,1,1.279,5.176A4.337,4.337,0,0,1,818.76,556.794Zm-9.011-19.349a4.172,4.172,0,0,1,5.676,1.289,3.6,3.6,0,0,1-1.458,5.276,4.34,4.34,0,0,1-5.5-1.391A3.726,3.726,0,0,1,809.749,537.445Zm-10.388-11.83a4.206,4.206,0,0,1,5.833.245,3.567,3.567,0,0,1-.333,5.436,4.385,4.385,0,0,1-5.685-.371A3.693,3.693,0,0,1,799.361,525.615Zm-12.583-9.81a4.2,4.2,0,0,1,5.776-.757,3.576,3.576,0,0,1,.755,5.395,4.374,4.374,0,0,1-5.665.621A3.706,3.706,0,0,1,786.778,515.8Zm-14.214-7.634a4.161,4.161,0,0,1,5.553-1.647,3.63,3.63,0,0,1,1.722,5.193,4.311,4.311,0,0,1-5.477,1.506A3.74,3.74,0,0,1,772.564,508.171Zm-15.3-5.537a4.1,4.1,0,0,1,5.233-2.373,3.693,3.693,0,0,1,2.52,4.891,4.235,4.235,0,0,1-5.187,2.247A3.806,3.806,0,0,1,757.265,502.634Zm-15.937-3.663a4.046,4.046,0,0,1,4.878-2.946,3.779,3.779,0,0,1,3.149,4.559,4.144,4.144,0,0,1-4.855,2.832A3.857,3.857,0,0,1,741.328,498.971Zm-16.269-2.054a3.982,3.982,0,0,1,4.531-3.38,3.837,3.837,0,0,1,3.63,4.221,4.074,4.074,0,0,1-4.522,3.293A3.922,3.922,0,0,1,725.059,496.917Zm-16.4-.707a4.117,4.117,0,0,1,8.209.2,4.012,4.012,0,0,1-4.209,3.642A3.97,3.97,0,0,1,708.657,496.21Zm-16.415.426a3.9,3.9,0,0,1,3.919-3.982,3.793,3.793,0,1,1,.36,7.552A4.008,4.008,0,0,1,692.242,496.636ZM675.886,498a3.865,3.865,0,0,1,3.66-4.185,4,4,0,0,1,4.506,3.394,3.9,3.9,0,0,1-3.667,4.126A4.043,4.043,0,0,1,675.886,498Zm-16.258,2.164a3.831,3.831,0,0,1,3.432-4.346,4.03,4.03,0,0,1,4.682,3.173,3.877,3.877,0,0,1-3.44,4.3A4.08,4.08,0,0,1,659.628,500.164ZM643.489,503a3.811,3.811,0,0,1,3.229-4.476,4.061,4.061,0,0,1,4.823,2.979,3.84,3.84,0,0,1-3.237,4.434A4.1,4.1,0,0,1,643.489,503Zm-16.009,3.423a3.79,3.79,0,0,1,3.048-4.584,4.087,4.087,0,0,1,4.939,2.8,3.817,3.817,0,0,1-3.056,4.548A4.12,4.12,0,0,1,627.48,506.424Zm-15.914,3.785a3.8,3.8,0,0,1,2.977-4.605,4.121,4.121,0,0,1,4.98,2.711,3.792,3.792,0,0,1-2.974,4.615A4.112,4.112,0,0,1,611.566,510.209Zm-15.947,3.659a3.8,3.8,0,0,1,3.034-4.572,4.112,4.112,0,0,1,4.945,2.765,3.8,3.8,0,0,1-3.031,4.581A4.1,4.1,0,0,1,595.619,513.868Zm-16,3.467a3.815,3.815,0,0,1,3.1-4.533,4.108,4.108,0,0,1,4.907,2.825,3.8,3.8,0,0,1-3.1,4.543A4.092,4.092,0,0,1,579.62,517.335Zm-16.049,3.249a3.823,3.823,0,0,1,3.172-4.488,4.1,4.1,0,0,1,4.858,2.892,3.812,3.812,0,0,1-3.169,4.5A4.081,4.081,0,0,1,563.571,520.584Zm-16.107,3a3.836,3.836,0,0,1,3.256-4.436,4.089,4.089,0,0,1,4.8,2.971,3.819,3.819,0,0,1-3.253,4.449A4.067,4.067,0,0,1,547.464,523.582Zm-16.166,2.7a3.85,3.85,0,0,1,3.351-4.37,4.078,4.078,0,0,1,4.739,3.058,3.832,3.832,0,0,1-3.351,4.389A4.053,4.053,0,0,1,531.3,526.283Zm-16.231,2.347a3.868,3.868,0,0,1,3.467-4.29,4.062,4.062,0,0,1,4.655,3.165,3.843,3.843,0,0,1-3.464,4.312A4.036,4.036,0,0,1,515.067,528.63Zm-16.293,1.915a3.89,3.89,0,0,1,3.6-4.189,4.048,4.048,0,0,1,4.552,3.291,3.861,3.861,0,0,1-3.6,4.217A4.012,4.012,0,0,1,498.774,530.545Zm-16.359,1.368a3.918,3.918,0,0,1,3.77-4.052A4.03,4.03,0,0,1,490.6,531.3a3.886,3.886,0,0,1-3.773,4.092A3.985,3.985,0,0,1,482.415,531.913Zm-16.407.654a3.957,3.957,0,0,1,3.985-3.864,4,4,0,0,1,4.224,3.639A4.118,4.118,0,0,1,466.008,532.567Zm-16.418-.337a4.023,4.023,0,0,1,4.266-3.58,3.793,3.793,0,1,1-.33,7.553A3.888,3.888,0,0,1,449.59,532.23Zm-16.3-1.809a4.121,4.121,0,0,1,4.647-3.11,3.916,3.916,0,0,1,3.472,4.243,3.99,3.99,0,0,1-4.668,3.233A3.794,3.794,0,0,1,433.292,530.421Zm-15.749-4.242a4.306,4.306,0,0,1,5.158-2.2,3.853,3.853,0,0,1,2.593,4.718,4.058,4.058,0,0,1-5.245,2.425A3.648,3.648,0,0,1,417.543,526.179Zm-13.417-8.6a4.626,4.626,0,0,1,5.554-.166,3.841,3.841,0,0,1,.625,5.173,4.087,4.087,0,0,1-5.916.553C402.389,521.534,402.391,518.891,404.126,517.576Zm-5.8-14a4.4,4.4,0,0,1,4.426,3.084,4.14,4.14,0,0,1-2.853,4.394,3.869,3.869,0,0,1-5.107-2.958A3.659,3.659,0,0,1,398.323,503.58Zm-1-14.642a4.4,4.4,0,0,1,4.425,3.084,4.14,4.14,0,0,1-2.853,4.394,3.87,3.87,0,0,1-5.107-2.958A3.659,3.659,0,0,1,397.325,488.938Zm-18.166,3.845a3.83,3.83,0,0,1,3.567-4.075,3.95,3.95,0,0,1,4.287,3.424,3.786,3.786,0,0,1-3.565,4.106A3.9,3.9,0,0,1,379.159,492.783Zm-15.742.827a3.854,3.854,0,0,1,3.76-3.92,3.908,3.908,0,0,1,4.116,3.59,3.82,3.82,0,0,1-3.756,3.962A3.876,3.876,0,0,1,363.417,493.61Zm-15.762.084a3.945,3.945,0,0,1,7.881.055A3.943,3.943,0,0,1,347.655,493.694Zm-15.744-.756a3.941,3.941,0,0,1,4.2-3.5,3.784,3.784,0,1,1-.541,7.543A3.786,3.786,0,0,1,331.911,492.938Zm-15.655-1.729A3.984,3.984,0,0,1,320.705,488a3.811,3.811,0,0,1,3.362,4.21,3.916,3.916,0,0,1-4.46,3.278A3.745,3.745,0,0,1,316.256,491.209Zm-15.46-2.864a4.052,4.052,0,0,1,4.712-2.863,3.77,3.77,0,0,1,2.986,4.447,3.963,3.963,0,0,1-4.731,2.936A3.688,3.688,0,0,1,300.8,488.345Zm-15.118-4.15a4.108,4.108,0,0,1,4.974-2.431,3.718,3.718,0,0,1,2.528,4.684,4.009,4.009,0,0,1-5,2.514A3.635,3.635,0,0,1,285.678,484.2Zm-14.575-5.59a4.178,4.178,0,0,1,5.229-1.918,3.68,3.68,0,0,1,1.976,4.9,4.059,4.059,0,0,1-5.273,2A3.581,3.581,0,0,1,271.1,478.605Zm-13.755-7.167a4.235,4.235,0,0,1,5.435-1.3,3.642,3.642,0,0,1,1.324,5.085,4.1,4.1,0,0,1-5.5,1.4A3.538,3.538,0,0,1,257.348,471.438Zm-12.634-8.774a4.276,4.276,0,0,1,5.57-.614,3.616,3.616,0,0,1,.585,5.2,4.128,4.128,0,0,1-5.649.7A3.509,3.509,0,0,1,244.714,462.664ZM233.5,452.342a4.275,4.275,0,0,1,5.605.122,3.6,3.6,0,0,1-.192,5.222,4.146,4.146,0,0,1-5.706-.034A3.512,3.512,0,0,1,233.5,452.342Zm-9.546-11.683a4.253,4.253,0,0,1,5.532.848,3.62,3.62,0,0,1-.974,5.146,4.132,4.132,0,0,1-5.644-.778A3.53,3.53,0,0,1,223.958,440.659Zm-7.76-12.786a4.212,4.212,0,0,1,5.365,1.53,3.662,3.662,0,0,1-1.711,4.982,4.092,4.092,0,0,1-5.473-1.478A3.57,3.57,0,0,1,216.2,427.873Zm-5.968-13.6a4.148,4.148,0,0,1,5.126,2.134,3.71,3.71,0,0,1-2.362,4.748,4.047,4.047,0,0,1-5.232-2.1A3.626,3.626,0,0,1,210.23,414.277Zm-4.241-14.152a4.078,4.078,0,0,1,4.837,2.66,3.765,3.765,0,0,1-2.926,4.472,4,4,0,0,1-4.939-2.638A3.69,3.69,0,0,1,205.989,400.125Zm-2.614-14.489a4.007,4.007,0,0,1,4.519,3.111,3.825,3.825,0,0,1-3.412,4.165,3.933,3.933,0,0,1-4.615-3.1A3.754,3.754,0,0,1,203.375,385.636Zm-1.034-14.663a3.944,3.944,0,0,1,4.16,3.52,4.073,4.073,0,0,1-8.1.305A3.813,3.813,0,0,1,202.341,370.973Zm0.925-15.074a3.945,3.945,0,0,1,4.16,3.52,4.072,4.072,0,0,1-8.1.305A3.814,3.814,0,0,1,203.266,355.9Zm-20.179.84a4.121,4.121,0,0,1,4.841-2.835,3.834,3.834,0,0,1,3.107,4.475,4.033,4.033,0,0,1-4.858,2.906A3.757,3.757,0,0,1,183.087,356.739Zm-15.634-4.21a4.168,4.168,0,0,1,5.078-2.439,3.786,3.786,0,0,1,2.69,4.7,4.083,4.083,0,0,1-5.107,2.514A3.711,3.711,0,0,1,167.453,352.529Zm-15.178-5.476a4.218,4.218,0,0,1,5.292-2.007,3.741,3.741,0,0,1,2.23,4.905,4.125,4.125,0,0,1-5.324,2.081A3.665,3.665,0,0,1,152.275,347.053Zm-14.582-6.732a4.252,4.252,0,0,1,5.464-1.551,3.7,3.7,0,0,1,1.746,5.071,4.174,4.174,0,0,1-5.511,1.624A3.631,3.631,0,0,1,137.693,340.321Zm-13.866-7.947a4.291,4.291,0,0,1,5.594-1.081,3.672,3.672,0,0,1,1.242,5.2,4.2,4.2,0,0,1-5.643,1.148A3.6,3.6,0,0,1,123.827,332.374Zm-13.046-9.069a4.307,4.307,0,0,1,5.676-.614,3.655,3.655,0,0,1,.742,5.282,4.221,4.221,0,0,1-5.73.677A3.585,3.585,0,0,1,110.781,323.305ZM98.618,313.224a4.31,4.31,0,0,1,5.711-.164,3.639,3.639,0,0,1,.257,5.325,4.237,4.237,0,0,1-5.77.217A3.58,3.58,0,0,1,98.618,313.224ZM87.373,302.255a4.3,4.3,0,0,1,5.711.26,3.633,3.633,0,0,1-.206,5.328,4.238,4.238,0,0,1-5.765-.214A3.587,3.587,0,0,1,87.373,302.255ZM77.05,290.522a4.292,4.292,0,0,1,5.675.653,3.64,3.64,0,0,1-.628,5.3,4.232,4.232,0,0,1-5.733-.613A3.6,3.6,0,0,1,77.05,290.522ZM67.626,278.15a4.279,4.279,0,0,1,5.619,1.008,3.652,3.652,0,0,1-1.017,5.251,4.219,4.219,0,0,1-5.67-.978A3.607,3.607,0,0,1,67.626,278.15Zm-8.563-12.906a4.257,4.257,0,0,1,5.543,1.33,3.667,3.667,0,0,1-1.367,5.183,4.2,4.2,0,0,1-5.592-1.3A3.626,3.626,0,0,1,59.062,265.244ZM51.311,251.9a4.232,4.232,0,0,1,5.456,1.619,3.679,3.679,0,0,1-1.678,5.1,4.19,4.19,0,0,1-5.505-1.6A3.648,3.648,0,0,1,51.311,251.9Zm-6.988-13.706a4.206,4.206,0,0,1,5.362,1.875,3.7,3.7,0,0,1-1.96,5.019,4.169,4.169,0,0,1-5.4-1.86A3.668,3.668,0,0,1,44.323,238.193Zm-6.279-14a4.181,4.181,0,0,1,5.264,2.1,3.719,3.719,0,0,1-2.211,4.929,4.145,4.145,0,0,1-5.3-2.092A3.688,3.688,0,0,1,38.043,224.191Zm-5.619-14.244a4.16,4.16,0,0,1,5.164,2.312,3.737,3.737,0,0,1-2.436,4.837,4.128,4.128,0,0,1-5.2-2.3A3.712,3.712,0,0,1,32.425,209.947Zm-5.01-14.441a4.137,4.137,0,0,1,5.067,2.5,3.758,3.758,0,0,1-2.636,4.746,4.109,4.109,0,0,1-5.1-2.489A3.733,3.733,0,0,1,27.415,195.506Zm-4.439-14.6a4.116,4.116,0,0,1,4.969,2.665,3.776,3.776,0,0,1-2.817,4.654,4.088,4.088,0,0,1-5-2.657A3.752,3.752,0,0,1,22.976,180.9Zm-3.908-14.733a4.1,4.1,0,0,1,4.875,2.815,3.8,3.8,0,0,1-2.985,4.566,4.068,4.068,0,0,1-4.9-2.811A3.772,3.772,0,0,1,19.068,166.171Zm-3.41-14.84a4.073,4.073,0,0,1,4.78,2.954,3.81,3.81,0,0,1-3.137,4.477,4.049,4.049,0,0,1-4.8-2.949A3.787,3.787,0,0,1,15.658,151.331ZM12.716,136.4a4.055,4.055,0,0,1,4.685,3.083,3.827,3.827,0,0,1-3.272,4.392,4.038,4.038,0,0,1-4.712-3.08A3.808,3.808,0,0,1,12.716,136.4Zm-2.5-15a4.035,4.035,0,0,1,4.593,3.2,3.843,3.843,0,0,1-3.4,4.308,4.02,4.02,0,0,1-4.62-3.2A3.824,3.824,0,0,1,10.217,121.405ZM8.144,106.352a4.019,4.019,0,0,1,4.5,3.308,3.861,3.861,0,0,1-3.521,4.225A4,4,0,0,1,4.6,110.574,3.837,3.837,0,0,1,8.144,106.352Zm-1.662-15.1A4,4,0,0,1,10.9,94.669a3.877,3.877,0,0,1-3.635,4.138,3.986,3.986,0,0,1-4.436-3.414A3.859,3.859,0,0,1,6.483,91.252ZM5.229,76.12a3.987,3.987,0,0,1,4.32,3.517,3.891,3.891,0,0,1-3.743,4.052,3.968,3.968,0,0,1-4.344-3.518A3.875,3.875,0,0,1,5.229,76.12ZM4.388,60.964A3.97,3.97,0,0,1,8.61,64.582a3.912,3.912,0,0,1-3.854,3.962A3.953,3.953,0,0,1,.509,64.925,3.891,3.891,0,0,1,4.388,60.964ZM3.99,45.791a3.8,3.8,0,1,1,.138,7.588A3.8,3.8,0,1,1,3.99,45.791Zm0-15.176a3.981,3.981,0,0,1,4.133,3.662l-0.006.353-0.006.093-0.022.184-0.07.359a3.71,3.71,0,0,1-.254.689,3.808,3.808,0,0,1-.89,1.176A4.258,4.258,0,0,1,3.992,38.2a4.131,4.131,0,0,1-2.847-1.153A3.786,3.786,0,0,1,.3,35.813a3.429,3.429,0,0,1-.216-0.734l-0.051-.4-0.008-.2,0-.1,0-.05v0.21A3.88,3.88,0,0,1,3.992,30.615ZM4.128,15.436A3.932,3.932,0,0,1,8.1,19.295a3.952,3.952,0,0,1-4.108,3.73,3.906,3.906,0,0,1-4-3.858A3.931,3.931,0,0,1,4.128,15.436ZM4.756,0.271A3.912,3.912,0,0,1,8.61,4.232,3.974,3.974,0,0,1,4.385,7.853,3.892,3.892,0,0,1,.509,3.889,3.954,3.954,0,0,1,4.756.271Z" transform="translate(0 -0.281)"/>
</svg>
